<svg width="23" height="26" viewBox="0 0 23 26" fill="none" xmlns="http://www.w3.org/2000/svg">
<path d="M2.84615 4.69231L4 23.1538C4.05481 24.2206 4.83077 25 5.84615 25H16.4615C17.481 25 18.2425 24.2206 18.3077 23.1538L19.4615 4.69231M1 4.69231H21.3077M7.46154 4.69231V2.38462C7.461 2.20264 7.49645 2.02235 7.56585 1.85412C7.63524 1.68589 7.73721 1.53304 7.86589 1.40436C7.99457 1.27568 8.14742 1.17371 8.31565 1.10432C8.48388 1.03492 8.66417 0.999473 8.84615 1.00001H13.4615C13.6435 0.999473 13.8238 1.03492 13.992 1.10432C14.1603 1.17371 14.3131 1.27568 14.4418 1.40436C14.5705 1.53304 14.6724 1.68589 14.7418 1.85412C14.8112 2.02235 14.8467 2.20264 14.8461 2.38462V4.69231M11.1538 8.38462V21.3077M7 8.38462L7.46154 21.3077M15.3077 8.38462L14.8461 21.3077" stroke="black" stroke-width="2" stroke-linecap="round" stroke-linejoin="round"/>
</svg>
