<svg xmlns="http://www.w3.org/2000/svg" viewBox="0 0 13 13"><g fill="none" opacity=".7"><path fill="#525C69" d="M12.48 6.49C12.48 3.183 9.8.5 6.49.5 3.183.5.5 3.182.5 6.49c0 3.31 2.682 5.99 5.99 5.99 3.31 0 5.99-2.68 5.99-5.99z"/><path fill="#FFF" d="M4.06 4.842c0-.308.098-.62.296-.936.197-.316.486-.578.865-.785.38-.207.823-.31 1.33-.31.47 0 .884.086 1.244.26.36.173.638.41.834.707.196.298.294.623.294.973 0 .275-.056.517-.168.724-.11.208-.244.387-.398.538-.154.15-.43.404-.83.76-.11.1-.198.19-.265.266-.065.076-.114.146-.147.21-.032.062-.057.125-.075.19-.018.062-.045.173-.08.332-.062.337-.255.505-.58.505-.168 0-.31-.055-.425-.165-.115-.11-.172-.274-.172-.49 0-.273.043-.51.127-.71.084-.198.196-.373.336-.524.14-.15.327-.33.564-.537.207-.183.357-.32.45-.412.092-.093.17-.195.233-.31.063-.112.095-.236.095-.37 0-.258-.097-.477-.29-.655-.192-.178-.44-.268-.746-.268-.358 0-.62.09-.79.27-.167.18-.31.445-.427.795-.11.367-.32.55-.627.55-.182 0-.335-.064-.46-.192s-.187-.267-.187-.416zm2.372 5.33c-.197 0-.37-.064-.518-.192-.147-.128-.22-.307-.22-.537 0-.205.07-.376.213-.516s.318-.21.525-.21c.205 0 .376.07.516.21.14.14.21.31.21.516 0 .227-.074.405-.22.535-.146.13-.314.194-.506.194z"/></g></svg>