<svg xmlns="http://www.w3.org/2000/svg" width="12" height="12" viewBox="0 0 12 12">
  <path fill="#FFA900" fill-rule="evenodd" d="M14.96085,12.2642173 C13.6883029,12.2642173 12.5207137,11.8155629 11.6070901,11.0683493 C11.6195981,11.004722 11.632106,10.9351125 11.632106,10.8954134 C11.632106,10.8100331 11.4037001,10.6387287 11.4037001,10.6387287 L11.746309,9.89640956 C11.746309,9.89640956 10.8038627,9.1818254 10.7184824,9.12526775 C10.6325583,9.06762246 10.3182283,8.69619097 10.232848,8.63963332 C10.1469239,8.58198802 9.97561946,7.98269446 9.97561946,7.98269446 L9.74775739,7.91743564 C9.69119974,7.60691238 9.65748268,7.28823178 9.65748268,6.96085 C9.65748268,6.16795525 9.83640063,5.41856639 10.1480115,4.74313754 C10.2464436,4.68277312 10.3399812,4.61425135 10.3753298,4.55551841 C10.4612539,4.41249282 11.2041169,3.92685838 11.3754213,3.86975691 C11.5467257,3.81265543 12.0323601,3.21281805 12.0323601,3.21281805 L11.8322331,2.81310774 L11.7234684,2.76688273 C12.6196896,2.07405152 13.7405099,1.65748268 14.96085,1.65748268 C15.6183327,1.65748268 16.2459051,1.78310592 16.8272524,2.00172299 L16.5401136,1.98268917 L16.221433,1.98268917 C16.1578056,1.98268917 16.0300071,2.00172299 15.9239615,2.00172299 C15.8179159,2.00172299 15.5628627,2.16541388 15.4780262,2.186623 C15.3948212,2.20783212 15.2017638,2.31659683 15.1191027,2.31659683 C15.0337224,2.31659683 14.9064676,2.4775686 14.9064676,2.4775686 C14.9064676,2.4775686 14.7580038,2.74730509 14.8852585,2.70488685 C15.0125132,2.66246861 15.18273,2.66029332 15.2017638,2.7244645 C15.2251482,2.78754803 15.265935,2.89250598 15.2871441,2.95558951 C15.3078094,3.01921686 15.6058247,3.04096981 15.6058247,3.04096981 C15.6058247,3.04096981 15.7124142,2.95395804 15.7760415,2.86857774 C15.8380374,2.78374126 15.839125,2.65811802 15.839125,2.65811802 C15.839125,2.65811802 15.9457145,2.87129686 15.9669236,2.93438039 C15.9875889,2.99800775 15.9239615,3.18943364 15.9239615,3.18943364 C15.9239615,3.18943364 15.6901174,3.33789747 15.6270339,3.33789747 C15.5628627,3.33789747 15.2017638,3.01921686 15.2017638,3.01921686 C15.0745091,3.0616351 14.9679197,3.12526246 14.9679197,3.12526246 C14.8194559,3.27427011 14.6704482,3.40152482 14.6704482,3.40152482 C14.6704482,3.40152482 14.5431935,3.44394306 14.458357,3.50757042 C14.3735206,3.57228542 14.1907958,3.58479336 14.1396764,3.65657807 C14.0336308,3.80286661 14.0983458,3.87356367 14.0983458,3.87356367 L14.0504894,4.07912898 L13.959127,4.14275633 L13.6491476,4.20747133 L13.4256361,4.14275633 C13.4468452,4.20638369 13.3701661,4.48264605 13.3701661,4.48264605 L13.4408632,4.86386637 C13.4408632,4.86386637 13.7486673,4.94815902 13.8122946,4.94815902 C13.8764658,4.94815902 14.0352623,4.97154343 14.1206426,4.88725078 C14.2033038,4.80132666 14.3436103,4.61044459 14.3860285,4.54736106 C14.4262714,4.48264605 14.486092,4.4190187 14.6133467,4.37714428 C14.7406015,4.33418222 14.7618106,4.27055487 14.8259818,4.24934575 C14.8896091,4.22868045 15.1446624,4.18571839 15.1446624,4.18571839 C15.1446624,4.18571839 15.3034588,4.29176399 15.36763,4.33418222 C15.3948212,4.35593517 15.1805547,4.42119399 15.6161574,4.48482135 L15.6161574,4.65286283 L15.8755612,4.63165371 L15.7243783,4.46143694 L15.7031692,4.4559987 L15.4568171,4.20747133 L15.4394147,4.01604544 C15.4394147,4.01604544 15.8527206,4.27544928 15.7863742,4.20747133 C15.7357986,4.1558081 16.0022721,4.32711252 16.0283756,4.34505869 L16.1529112,4.64253018 L16.3465124,4.88018107 C16.5754621,4.90247784 16.1496483,4.61044459 16.3698968,4.61044459 C16.3698968,4.61044459 16.5749183,4.6544943 16.6385457,4.63328518 C16.702173,4.61207606 16.7500295,4.55116782 16.8397604,4.52560812 C16.9740848,4.485909 16.8169198,4.33472605 16.890336,4.22868045 C16.9681027,4.11502133 17.0861125,4.07912898 17.1497398,4.05791986 C17.2155425,4.03725456 17.3824963,4.03181633 17.3824963,4.03181633 L17.6636531,3.97308338 C17.6348304,4.11610898 17.4852789,4.07151545 17.5151892,4.16396545 C17.5423804,4.24717045 17.7914516,4.24934575 17.8762881,4.3129731 C17.9616684,4.37714428 17.8974972,4.47068194 17.8974972,4.47068194 C17.8974972,4.47068194 17.6636531,4.44947282 17.5151892,4.4282637 C17.3661816,4.40705458 17.1328813,4.50385517 17.1328813,4.50385517 L16.9436307,4.61044459 C16.9436307,4.61044459 16.816376,4.65286283 16.8375851,4.75890842 C16.8566189,4.86549784 16.9436307,4.99275255 17.0262919,5.09879814 C17.1116722,5.20538756 17.1752995,5.33264227 17.2389269,5.29022404 C17.3030981,5.2456305 17.4537372,5.25868227 17.4537372,5.25868227 C17.4537372,5.25868227 17.472771,5.26901492 17.4939801,5.37342904 C17.5151892,5.47893081 17.5151892,5.62793846 17.5151892,5.62793846 C17.5151892,5.62793846 17.3030981,5.62793846 17.3661816,5.672532 C17.4303528,5.71277494 17.5195398,5.87429053 17.5576075,5.92540995 C17.7702425,6.22342526 18.2140025,6.88199558 18.2569646,6.96683206 C18.298839,7.05112471 18.280349,7.18055472 18.3412572,7.24091913 C18.4690558,7.36763002 18.724109,7.24091913 18.7877364,7.19958854 C18.8513637,7.1571703 19.0639987,7.05112471 19.1254508,6.98804118 C19.1912534,6.92441382 19.1700443,6.94562294 19.2978429,6.85969882 C19.4250976,6.77486234 19.5077588,6.71177881 19.4463067,6.64760763 C19.3821355,6.58398028 19.2548808,6.35013615 19.2548808,6.35013615 C19.0639987,6.39309821 18.8725728,6.28650879 18.8725728,6.22342526 C18.8725728,6.15871025 18.7589137,5.90746377 18.7589137,5.90746377 C18.7589137,5.90746377 18.724109,5.86341406 18.8725728,5.94661907 C19.0210367,6.03199937 19.1488352,6.20221614 19.2766337,6.20221614 C19.4038885,6.20221614 19.4653405,6.24409055 19.6138043,6.32892703 C19.762812,6.4137635 19.8286147,6.5198091 19.9118197,6.56331498 C19.9961123,6.60518939 20.1239108,6.77486234 20.1239108,6.77486234 C20.1239108,6.77486234 20.2185361,6.99674235 20.2566038,7.11040148 C20.1766617,9.96928191 17.8393081,12.2642173 14.96085,12.2642173 L14.96085,12.2642173 Z M17.6593025,2.4014333 C17.5804481,2.44548301 17.4928925,2.48518213 17.4515619,2.44330772 C17.3879345,2.37968036 17.2389269,2.27145947 17.2389269,2.27145947 C17.2780822,2.24535594 17.2661181,2.21109506 17.2351201,2.17520271 C17.380321,2.24481212 17.5217151,2.31985977 17.6593025,2.4014333 L17.6593025,2.4014333 Z M14.96085,1 C11.6685422,1 9,3.66908601 9,6.96085 C9,10.2531578 11.6685422,12.9217 14.96085,12.9217 C18.2531578,12.9217 20.9217,10.2531578 20.9217,6.96085 C20.9217,3.66908601 18.2531578,1 14.96085,1 L14.96085,1 Z M18.4288128,7.7711471 C18.3015581,7.55742444 17.9404593,7.09136765 17.8762881,6.98532206 C17.8126607,6.87982029 17.7490334,6.66718528 17.7278243,6.58180498 C17.7060713,6.49696851 17.6005695,6.26312438 17.5788166,6.20004084 C17.5576075,6.13532584 17.4091437,5.94444377 17.3661816,5.88081642 C17.3237634,5.81718906 17.1752995,5.774227 17.090463,5.71059964 C17.0050827,5.64751611 16.474311,5.54092669 16.474311,5.54092669 C16.474311,5.54092669 16.3127954,5.43868787 16.2638512,5.47729934 C16.0517601,5.64751611 15.5628627,5.54092669 15.4568171,5.49905228 C15.3502277,5.4555464 15.2871441,5.39409433 15.2871441,5.33046698 C15.2871441,5.26466433 15.1908874,4.95849167 15.1908874,4.95849167 C15.1908874,4.95849167 14.9831468,4.99492784 14.9189756,4.99492784 C14.8553482,4.99492784 14.6900259,4.92912519 14.6900259,4.92912519 C14.6900259,4.92912519 14.4773909,4.94815902 14.3925544,4.99057726 C14.3093494,5.03299549 14.1396764,5.09662285 14.0760491,5.11783197 C14.0124217,5.13904109 13.8422049,5.16025021 13.8422049,5.16025021 C13.6507791,5.07541373 13.5044905,5.28804874 13.459897,5.37342904 C13.419654,5.45772169 13.3342737,5.50013993 13.3342737,5.58552023 C13.3342737,5.6703567 13.1705829,5.76389435 13.1091308,5.80468112 C13.0455034,5.84709936 12.8247111,6.00861495 12.7610837,6.11411672 C12.6974564,6.22070614 12.6631955,6.35557438 12.6419864,6.46161998 C12.6207772,6.56766557 12.5908669,6.64543234 12.5908669,6.79389617 C12.5908669,6.94344765 12.5696578,7.0277403 12.5908669,7.15499501 C12.6120761,7.28333737 12.8247111,7.60201797 12.9095475,7.70751974 C12.994384,7.81356534 13.1009734,7.9419077 13.207019,8.00499123 C13.3130646,8.06644329 13.4811061,8.09961653 13.4811061,8.09961653 C13.4811061,8.09961653 13.5447335,8.32149654 13.7149502,8.25841301 C13.8846232,8.19478565 14.05484,8.19478565 14.2033038,8.10886153 C14.3517676,8.02620035 14.5856117,7.92069858 14.5856117,8.04740947 C14.5856117,8.17466418 14.8091232,8.22904653 14.9369218,8.1866283 C15.0641765,8.14366623 15.1359612,8.06861858 15.1147521,8.21817006 C15.0957182,8.36609007 15.1593456,8.55805978 15.1593456,8.64289626 C15.1593456,8.72501362 15.1381365,8.80985009 15.2017638,8.87619657 C15.2637597,8.93819245 15.324668,9.02737951 15.324668,9.08883158 C15.324668,9.15245893 15.4568171,9.38358394 15.4992353,9.46842042 C15.5416536,9.55434454 15.5862471,9.68105543 15.5438289,9.7658919 C15.5014106,9.8512722 15.4182056,10.0845725 15.4182056,10.0845725 C15.4182056,10.0845725 15.3823133,10.2765422 15.4035224,10.3396258 C15.4252753,10.4032531 15.4758509,10.4880896 15.5824403,10.5952228 C15.6884859,10.6985493 15.6884859,10.8279793 15.7521133,10.9117281 C15.8157406,10.9987399 15.839125,11.1700443 15.839125,11.1700443 L15.950065,11.4153087 L16.0370768,11.7715132 C16.0370768,11.7715132 16.4128589,11.5915076 16.4955201,11.5702985 C16.5809004,11.5490893 16.8060433,11.3995379 16.890336,11.3152452 C16.9757163,11.2304087 16.9583139,11.1656937 17.0649033,11.0808573 C17.1709489,10.9987399 17.3645501,10.847557 17.3645501,10.847557 L17.3427972,10.5305078 L17.5983942,10.1906181 L17.7892763,9.99973603 C17.7892763,9.99973603 17.9589493,9.7680672 17.938284,9.68377455 C17.9170749,9.59893807 17.8741128,9.17312423 17.8741128,9.17312423 C17.8741128,9.17312423 17.9589493,8.98278598 18.0225766,8.89794951 C18.0867478,8.80985009 18.0867478,8.70597979 18.2140025,8.60047802 C18.3412572,8.49334478 18.4266375,8.36609007 18.4902649,8.28179742 C18.5538922,8.19641712 18.6811469,8.02620035 18.724109,7.96311681 C18.7665272,7.90166475 18.7099696,7.80105739 18.7116011,7.7988821 L18.4288128,7.7711471 Z M13.8742905,3.26121835 L13.8742905,3.4863613 L14.2435467,3.40152482 L14.3349091,3.27427011 L14.1054155,2.99800775 L13.986862,2.76416362 L13.8742905,2.87129686 L13.8742905,3.24871041 L13.5871517,3.1676807 L13.5023152,3.35910659 L13.5849764,3.4863613 L13.8742905,3.26121835 Z M18.2352116,9.99973603 C18.2140025,10.0845725 18.1927934,10.2129149 18.1927934,10.2129149 C18.1927934,10.2129149 18.0889231,10.4456713 18.0655387,10.5305078 C18.0443296,10.6164319 18.0889231,10.7855611 18.1503752,10.764352 C18.2140025,10.7431428 18.3200481,10.6164319 18.3842193,10.5740137 C18.4478466,10.5305078 18.5538922,10.3608349 18.5751014,10.2765422 C18.5968543,10.1906181 18.6365534,10.0421543 18.6599378,9.95786162 C18.6811469,9.87411279 18.7023561,9.70226455 18.7045314,9.64135631 C18.7045314,9.57772895 18.7279158,9.31016776 18.7279158,9.31016776 L18.4353387,9.69030043 C18.4353387,9.69030043 18.258596,9.91761868 18.2352116,9.99973603 L18.2352116,9.99973603 Z" transform="translate(-9 -1)"/>
</svg>
